PathFileType	4	(X/Y/Z)	/Users/itak/Documents/Research/Walk-IL/dataset/trc/00561_00009.trc
DataRate	CameraRate	NumFrames	NumMarkers	Units	OrigDataRate	OrigDataStartFrame	OrigNumFrames
100.000000	100.000000	4	53	mm	100.000000	367	420
Frame#	Time	RPSI			LPSI			L3			STRN			T10			C7			CLAV			RBAK			LBAK			LSHO			LUPA			LAEL			LAOL			LWTS			LWPS			LFRA			LHPS			LHTS			RSHO			RUPA			RAEL			RAOL			RWTS			RWPS			RFRA			RIFD			RHTS			RHPS			RBHD			LFHD			RFHD			LBHD			LHIP			RHIP			RASI			LASI			LKNE			LTHI			LANK			LTIP			LTOE			LMT1			LMT5			LHEE			RKNE			RTHI			RANK			RTIP			RTOE			RMT1			RMT5			RHEE			LIFD			
		X1	Y1	Z1	X2	Y2	Z2	X3	Y3	Z3	X4	Y4	Z4	X5	Y5	Z5	X6	Y6	Z6	X7	Y7	Z7	X8	Y8	Z8	X9	Y9	Z9	X10	Y10	Z10	X11	Y11	Z11	X12	Y12	Z12	X13	Y13	Z13	X14	Y14	Z14	X15	Y15	Z15	X16	Y16	Z16	X17	Y17	Z17	X18	Y18	Z18	X19	Y19	Z19	X20	Y20	Z20	X21	Y21	Z21	X22	Y22	Z22	X23	Y23	Z23	X24	Y24	Z24	X25	Y25	Z25	X26	Y26	Z26	X27	Y27	Z27	X28	Y28	Z28	X29	Y29	Z29	X30	Y30	Z30	X31	Y31	Z31	X32	Y32	Z32	X33	Y33	Z33	X34	Y34	Z34	X35	Y35	Z35	X36	Y36	Z36	X37	Y37	Z37	X38	Y38	Z38	X39	Y39	Z39	X40	Y40	Z40	X41	Y41	Z41	X42	Y42	Z42	X43	Y43	Z43	X44	Y44	Z44	X45	Y45	Z45	X46	Y46	Z46	X47	Y47	Z47	X48	Y48	Z48	X49	Y49	Z49	X50	Y50	Z50	X51	Y51	Z51	X52	Y52	Z52	X53	Y53	Z53	

368	3.67	1091.36376953125	1007.182067871094	453.8360290527344	1143.755249023438	1015.363098144531	332.034912109375	1125.8427734375	1109.603393554688	394.8628845214844	1349.908447265625	1297.51513671875	472.906982421875	1118.7275390625	1235.589477539062	393.6909484863281	1163.750732421875	1509.558959960938	426.5041809082031	1331.865112304688	1408.778564453125	468.4031677246094	1069.765014648438	1384.691284179688	486.0386352539062	1155.535278320312	1458.556640625	329.0184936523438	1273.173217773438	1487.121948242188	283.7265930175781	1292.135009765625	1372.019165039062	194.2046508789062	1340.542358398438	1171.265014648438	151.1189422607422	1245.868041992188	1133.13916015625	163.6720733642578	1494.96337890625	1010.580627441406	277.2615356445312	1509.255981445312	975.3295288085938	198.2519378662109	1396.949829101562	1109.253662109375	165.8631439208984	1546.906860351562	933.5624389648438	218.5084991455078	1558.645263671875	962.4907836914062	279.3509826660156	1173.741333007812	1474.172607421875	589.607421875	1133.108642578125	1414.207641601562	647.5880126953125	1089.33154296875	1137.734741210938	713.4140625	1041.308959960938	1118.967163085938	673.0707397460938	1228.8037109375	920.8969116210938	734.8468627929688	1165.7275390625	905.036376953125	784.57763671875	1094.945068359375	1083.5546875	728.7047119140625	1241.2294921875	753.6553955078125	750.8792724609375	1253.699584960938	834.4061889648438	772.108642578125	1185.242919921875	834.1787109375	800.203857421875	1251.275268554688	1691.746459960938	520.6474609375	1437.645263671875	1684.922119140625	428.4046325683594	1384.873901367188	1686.733764648438	563.8345336914062	1317.384155273438	1686.60693359375	369.76025390625	1312.713012695312	945.2890014648438	260.1232604980469	1165.239990234375	935.7600708007812	611.0573120117188	1264.533325195312	974.2728271484375	590.2049560546875	1367.507080078125	972.9102172851562	334.3120727539062	1345.724731445312	502.2415771484375	338.4976501464844	1347.635375976562	669.173828125	299.2513732910156	1222.102416992188	35.19314575195312	310.5826416015625	1269.0009765625	256.0776672363281	311.2002563476562	1409.565307617188	38.91362380981445	432.3883666992188	1326.813842773438	47.06257247924805	441.6264038085938	1342.206665039062	35.86361694335938	335.0625915527344	1141.51171875	32.73140716552734	339.7298889160156	1280.336181640625	500.7942504882812	595.4014282226562	1221.875610351562	788.2151489257812	627.4021606445312	1155.341064453125	39.15577697753906	524.4215698242188	1278.629638671875	353.3047180175781	577.0009765625	1381.536010742188	39.35587310791016	550.4053344726562	1331.246704101562	41.94112014770508	493.1072387695312	1276.740478515625	40.73271179199219	583.3800659179688	1119.111450195312	29.25459480285645	454.3804321289062	1583.173461914062	871.8081665039062	301.313720703125	
369	3.68	1094.520385742188	1007.834716796875	455.4728088378906	1147.001586914062	1015.916625976562	333.7427673339844	1128.793579101562	1109.633056640625	396.4577941894531	1352.512573242188	1297.992553710938	474.3987121582031	1121.386474609375	1235.753540039062	395.2436218261719	1165.90869140625	1509.744506835938	428.0594177246094	1334.260986328125	1409.177978515625	469.8955078125	1072.159423828125	1384.556640625	487.3670349121094	1157.832397460938	1458.687744140625	330.7674560546875	1275.267822265625	1487.517578125	285.16162109375	1292.936401367188	1372.23583984375	195.5268707275391	1337.78515625	1170.360961914062	151.7559967041016	1242.280029296875	1134.486450195312	164.9715728759766	1488.232055664062	1003.259033203125	275.1034240722656	1501.244506835938	969.02587890625	195.3847198486328	1392.641845703125	1106.506591796875	165.4691925048828	1537.621948242188	925.6769409179688	214.760986328125	1550.359741210938	953.0347290039062	276.139892578125	1175.764892578125	1474.238403320312	591.058349609375	1135.178588867188	1414.203491210938	648.9637451171875	1092.056518554688	1137.666870117188	714.9671630859375	1044.284912109375	1118.602416992188	674.5911865234375	1233.012573242188	921.90625	736.8638916015625	1169.992309570312	905.6234741210938	786.5315551757812	1098.010864257812	1083.540283203125	730.3147583007812	1246.243041992188	754.8953247070312	753.154541015625	1258.519653320312	835.7183837890625	774.2957153320312	1189.984497070312	834.9344482421875	802.29296875	1252.351684570312	1692.155517578125	522.0958862304688	1439.126831054688	1686.092041015625	430.6254577636719	1385.76025390625	1687.720336914062	565.8475341796875	1319.10986328125	1687.22216796875	371.4461669921875	1315.753784179688	945.45751953125	261.7944641113281	1168.311645507812	936.1466674804688	612.7056884765625	1267.64892578125	974.5286865234375	591.8073120117188	1370.646484375	973.0220947265625	335.8872985839844	1346.365844726562	502.1361389160156	339.1322937011719	1349.328247070312	669.132568359375	300.3397216796875	1222.09619140625	35.20165252685547	310.6060180664062	1269.200561523438	256.228515625	311.2966613769531	1409.504760742188	38.95740127563477	432.3590393066406	1326.783447265625	47.05876541137695	441.6163330078125	1342.193115234375	35.85815048217773	335.062255859375	1141.553955078125	32.82779693603516	339.6596984863281	1281.166015625	500.6721801757812	595.5538940429688	1224.435424804688	788.335693359375	628.512939453125	1155.347290039062	39.21263122558594	524.4572143554688	1279.119018554688	353.2157592773438	576.976318359375	1381.577026367188	39.34330749511719	550.2943725585938	1331.26123046875	41.93007659912109	493.0651245117188	1276.76123046875	40.7413215637207	583.3407592773438	1119.05224609375	29.39322280883789	454.4786376953125	1571.879760742188	861.1931762695312	296.173095703125	
370	3.69	1097.557006835938	1008.471008300781	457.0439758300781	1150.128540039062	1016.456970214844	335.3973693847656	1131.566162109375	1109.624633789062	398.0068359375	1355.036254882812	1298.41943359375	475.8700561523438	1123.9814453125	1235.899536132812	396.7697143554688	1168.049072265625	1509.904663085938	429.5691528320312	1336.603637695312	1409.538452148438	471.3653259277344	1074.515502929688	1384.432373046875	488.6415710449219	1160.098510742188	1458.765258789062	332.5050048828125	1277.3388671875	1487.862670898438	286.5961303710938	1293.6728515625	1372.419677734375	196.8822174072266	1334.951416015625	1169.516845703125	152.4056701660156	1238.678344726562	1135.9267578125	166.2319946289062	1481.058349609375	995.9977416992188	272.8781127929688	1492.893676757812	962.8639526367188	192.4734497070312	1388.173461914062	1103.828735351562	165.0562133789062	1527.923583984375	917.9954223632812	210.9233551025391	1541.546997070312	943.7234497070312	272.8644714355469	1177.742919921875	1474.291015625	592.469970703125	1137.174682617188	1414.197387695312	650.2989501953125	1094.6494140625	1137.605834960938	716.3923950195312	1047.132568359375	1118.219970703125	675.9807739257812	1237.145385742188	922.9703979492188	738.7443237304688	1174.181030273438	906.2260131835938	788.3286743164062	1100.973266601562	1083.51806640625	731.7879028320312	1251.188842773438	756.1917114257812	755.2720336914062	1263.273071289062	837.0878295898438	776.3237915039062	1194.677124023438	835.7275390625	804.2338256835938	1253.430419921875	1692.505004882812	523.5189819335938	1440.580444335938	1687.164794921875	432.7883911132812	1386.653930664062	1688.634765625	567.7890625	1320.825561523438	1687.776123046875	373.0541687011719	1318.823608398438	945.5381469726562	263.4666748046875	1171.273803710938	936.515625	614.2942504882812	1270.65380859375	974.7555541992188	593.3024291992188	1373.699829101562	973.1497802734375	337.3724670410156	1347.03466796875	502.0144653320312	339.7110290527344	1350.992065429688	669.0785522460938	301.3325805664062	1222.090454101562	35.18458938598633	310.6106262207031	1269.404052734375	256.3508911132812	311.3823547363281	1409.438720703125	39.00862121582031	432.31640625	1326.754760742188	47.06058883666992	441.5977783203125	1342.181884765625	35.84415817260742	335.047607421875	1141.585815429688	32.8946647644043	339.5837097167969	1282.042358398438	500.5579223632812	595.6720581054688	1226.9306640625	788.4323120117188	629.5469360351562	1155.35009765625	39.25878524780273	524.5284423828125	1279.630859375	353.1281127929688	576.95947265625	1381.619384765625	39.33650588989258	550.1724243164062	1331.266967773438	41.92961120605469	493.0306091308594	1276.781372070312	40.74570465087891	583.319091796875	1119.027709960938	29.49350929260254	454.6058654785156	1559.958984375	850.8482055664062	290.938720703125	
371	3.7	1100.478759765625	1009.08056640625	458.5391845703125	1153.1455078125	1016.966064453125	336.9747314453125	1134.178955078125	1109.583251953125	399.4965515136719	1357.486083984375	1298.784057617188	477.309326171875	1126.537231445312	1236.017456054688	398.2638549804688	1170.175415039062	1510.038208007812	431.0403137207031	1338.895263671875	1409.850952148438	472.8079528808594	1076.83203125	1384.320190429688	489.8705139160156	1162.335693359375	1458.799072265625	334.2258911132812	1279.388305664062	1488.149536132812	288.0224609375	1294.333862304688	1372.541137695312	198.2831268310547	1332.046264648438	1168.726928710938	153.0691528320312	1235.069702148438	1137.441040039062	167.4748229980469	1473.486938476562	988.8558959960938	270.5837097167969	1484.231323242188	956.8753662109375	189.5299072265625	1383.558959960938	1101.226684570312	164.6253204345703	1517.84814453125	910.5595703125	207.0333404541016	1532.255249023438	934.6250610351562	269.5279846191406	1179.688842773438	1474.32568359375	593.85107421875	1139.109252929688	1414.177856445312	651.5997314453125	1097.123046875	1137.542724609375	717.6986083984375	1049.861206054688	1117.816650390625	677.242919921875	1241.19921875	924.0711059570312	740.4976196289062	1178.280517578125	906.8262329101562	789.964599609375	1103.83056640625	1083.476806640625	733.1298217773438	1256.05419921875	757.5108642578125	757.2364501953125	1267.9443359375	838.4805908203125	778.197509765625	1199.306030273438	836.5413208007812	806.0223999023438	1254.513916015625	1692.790771484375	524.9075927734375	1442.008056640625	1688.138061523438	434.8800659179688	1387.564086914062	1689.477783203125	569.6527099609375	1322.530517578125	1688.256958007812	374.5903930664062	1322.027954101562	945.4826049804688	265.1570129394531	1174.11669921875	936.8584594726562	615.8079833984375	1273.540771484375	974.9357299804688	594.6830444335938	1376.665405273438	973.2606201171875	338.7689819335938	1347.743408203125	501.8644104003906	340.2252197265625	1352.618286132812	668.9988403320312	302.2166137695312	1222.081420898438	35.15453338623047	310.6056213378906	1269.61474609375	256.4422607421875	311.4698181152344	1409.369750976562	39.06410217285156	432.2664489746094	1326.728149414062	47.06356048583984	441.5780029296875	1342.171997070312	35.82863235473633	335.0261840820312	1141.602783203125	32.93198013305664	339.5152893066406	1282.94873046875	500.4396667480469	595.7662353515625	1229.33935546875	788.4970092773438	630.5128173828125	1155.35009765625	39.2952995300293	524.6287231445312	1280.154907226562	353.0368347167969	576.9598388671875	1381.650268554688	39.32574081420898	550.0568237304688	1331.265014648438	41.93722152709961	493.0041809082031	1276.799438476562	40.74634552001953	583.3124389648438	1119.028930664062	29.55702972412109	454.7491149902344	1547.49462890625	840.857177734375	285.6527709960938	
